<?xml version="1.0" encoding="UTF-8"?>
<svg id="Layer_1" data-name="Layer 1" xmlns="http://www.w3.org/2000/svg" viewBox="0 0 87.88 87.88">
  <defs>
    <style>
      .cls-1 {
        fill: #fff;
      }
    </style>
  </defs>
  <path class="cls-1" d="M50,48.07c-3.84,4.56-11.27,3.72-14.02-1.55-2.73-5.23.62-11.88,6.51-12.46,7.75-.75,12.5,8.05,7.51,14.01Z"/>
  <path class="cls-1" d="M64.37,32.78c-.48-8.41-3.98-10.86-12.12-11.14-5.66-.2-12.08-.19-17.74.03-8.32.32-11.53,3.13-11.86,11.61-.24,6.23-.21,12.87.11,19.09.39,7.56,3.18,10.57,10.82,11.04,5.68.35,12.06.18,17.76-.01,4.02-.13,7.78-.01,10.64-3.34,2.48-2.89,2.27-6.52,2.38-10.1.17-5.57.32-11.62.01-17.18ZM51.94,52.61c-7.92,6.78-20.38,1.66-21.5-8.64-.75-6.98,4.46-13.87,11.56-14.5,13.1-1.17,19.82,14.7,9.94,23.14ZM57.61,31.91c-4.11.55-4.69-5.45-1.15-6.05,4.39-.74,5.05,5.52,1.15,6.05Z"/>
  <path class="cls-1" d="M43.94,0C19.67,0,0,19.67,0,43.94s19.67,43.94,43.94,43.94,43.94-19.67,43.94-43.94S68.21,0,43.94,0ZM68.96,52.62c-.4,8.76-4.79,14.48-13.82,15.28-6.16.55-13.44.3-19.66.1-5.2-.17-9.79-.42-13.57-4.49-3.39-3.65-3.67-7.71-3.84-12.45-.2-5.59-.19-11.28,0-16.87.16-4.46.34-8.39,3.29-11.99,3.74-4.55,8.96-5.1,14.47-5.25h15.27c.1.16.38.1.54.1,8.96.09,15.9,3.04,17.11,12.85.08.7.05,1.44.21,2.13-.23,6.8.31,13.81,0,20.59Z"/>
</svg>