<svg width="147" height="27" viewBox="0 0 147 27" fill="none" xmlns="http://www.w3.org/2000/svg">
<g clip-path="url(#clip0_1_5)">
<path d="M89.5208 27C88.2304 27 86.9778 26.8413 85.7785 26.5315C84.5791 26.2217 83.5315 25.7531 82.6434 25.1259L83.7365 22.2922C84.283 22.6322 84.8675 22.927 85.4976 23.1839C86.1201 23.4333 86.7577 23.6222 87.4029 23.7431C88.0482 23.864 88.6858 23.9244 89.3159 23.9244C90.7506 23.9244 91.8361 23.5995 92.5724 22.9421C93.3088 22.2846 93.6807 21.3098 93.6807 20.0025V17.5617H93.7718C93.4302 18.529 92.7926 19.3149 91.8665 19.9118C90.9404 20.5164 89.87 20.8186 88.6555 20.8186C87.2815 20.8186 86.0821 20.5088 85.0649 19.8967C84.0477 19.2846 83.2507 18.4232 82.6889 17.3199C82.1272 16.2166 81.8387 14.9169 81.8387 13.4282C81.8387 11.9395 82.1196 10.67 82.6889 9.56675C83.2583 8.46347 84.0477 7.60201 85.0649 6.98992C86.0821 6.37783 87.2815 6.06801 88.6555 6.06801C89.8852 6.06801 90.9707 6.37028 91.8968 6.97481C92.8229 7.57934 93.453 8.38035 93.7718 9.38539H93.6807V6.37028H97.4383V19.6096C97.4383 21.1965 97.127 22.5416 96.5122 23.6373C95.8973 24.733 95.0016 25.5642 93.8325 26.1385C92.6635 26.7128 91.2288 27 89.5284 27H89.5208ZM89.6727 17.8262C90.8644 17.8262 91.8057 17.4332 92.5041 16.6322C93.2025 15.8388 93.5517 14.7657 93.5517 13.4207C93.5517 12.0756 93.2025 11.0101 92.5041 10.2393C91.8057 9.46851 90.8644 9.07557 89.6727 9.07557C88.4809 9.07557 87.5092 9.46096 86.8108 10.2393C86.1125 11.0176 85.7633 12.0756 85.7633 13.4207C85.7633 14.7657 86.1125 15.8388 86.8108 16.6322C87.5092 17.4257 88.4657 17.8262 89.6727 17.8262Z" fill="black"/>
<path d="M107.276 21.5668C106.046 21.5668 105.006 21.3325 104.171 20.8715C103.336 20.4106 102.706 19.7229 102.296 18.8086C101.879 17.8942 101.674 16.7456 101.674 15.3552V6.36272H105.614V15.3249C105.614 15.9899 105.712 16.5567 105.902 17.0328C106.092 17.5088 106.396 17.8564 106.813 18.0907C107.231 18.3249 107.747 18.4383 108.377 18.4383C109.06 18.4383 109.675 18.2796 110.214 17.9547C110.745 17.6373 111.17 17.1839 111.474 16.6096C111.778 16.0353 111.929 15.3854 111.929 14.6675V6.37028H115.869V21.272H112.142V18.1663H112.385C111.922 19.2544 111.254 20.0932 110.389 20.6826C109.516 21.272 108.491 21.5743 107.299 21.5743L107.276 21.5668Z" fill="black"/>
<path d="M120.158 21.2645V6.36272H123.825V9.98237H123.703C124.007 8.81864 124.576 7.90428 125.419 7.23929C126.254 6.57431 127.339 6.20403 128.675 6.12091L130.102 6L130.376 9.43829L127.924 9.64987C126.694 9.77078 125.753 10.1637 125.108 10.8287C124.462 11.4937 124.136 12.3778 124.136 13.4811V21.2645H120.166H120.158Z" fill="black"/>
<path d="M138.43 21.5668C137.2 21.5668 136.16 21.3325 135.325 20.8715C134.49 20.4106 133.86 19.7229 133.45 18.8086C133.033 17.8942 132.828 16.7456 132.828 15.3552V6.36272H136.767V15.3249C136.767 15.9899 136.866 16.5567 137.056 17.0328C137.246 17.5088 137.549 17.8564 137.967 18.0907C138.384 18.3249 138.9 18.4383 139.53 18.4383C140.214 18.4383 140.829 18.2796 141.367 17.9547C141.899 17.6373 142.324 17.1839 142.628 16.6096C142.931 16.0353 143.083 15.3854 143.083 14.6675V6.37028H147.023V21.272H143.296V18.1663H143.538C143.075 19.2544 142.407 20.0932 141.542 20.6826C140.677 21.272 139.644 21.5743 138.453 21.5743L138.43 21.5668Z" fill="black"/>
<path d="M26.7204 21.5668C24.982 21.5668 23.6764 21.0982 22.811 20.1612C21.9456 19.2242 21.5053 17.864 21.5053 16.073V0H25.4451V15.8388C25.4451 16.4055 25.5286 16.8741 25.688 17.2594C25.8474 17.6448 26.0903 17.932 26.4167 18.136C26.7431 18.34 27.1303 18.4383 27.6009 18.4383C27.8666 18.4383 28.1171 18.4232 28.36 18.3929C28.6029 18.3627 28.8459 18.3174 29.0888 18.2569L29.1495 21.2418C28.7472 21.3401 28.3524 21.4232 27.9653 21.4836C27.5782 21.5441 27.1682 21.5743 26.7204 21.5743V21.5668Z" fill="#18322F"/>
<path d="M36.7177 21.5668C35.6246 21.5668 34.653 21.3627 33.7952 20.9471C32.9374 20.5315 32.2618 19.9723 31.7684 19.2544C31.275 18.5441 31.0245 17.7431 31.0245 16.8589C31.0245 15.7557 31.3281 14.8715 31.9354 14.2217C32.5427 13.5718 33.4991 13.0882 34.8124 12.7859C36.1256 12.4836 37.8412 12.3325 39.9667 12.3325H41.7582V14.6222H40.0881C39.1393 14.6222 38.3346 14.6599 37.6818 14.728C37.029 14.796 36.49 14.9093 36.0725 15.0605C35.655 15.2116 35.3589 15.4156 35.1616 15.6801C34.9718 15.9446 34.8731 16.262 34.8731 16.6474C34.8731 17.3275 35.116 17.864 35.6019 18.2494C36.0877 18.6348 36.7557 18.8237 37.5983 18.8237C38.2815 18.8237 38.9039 18.665 39.4429 18.34C39.9895 18.0227 40.4297 17.5844 40.7637 17.0252C41.0978 16.4736 41.2648 15.8539 41.2648 15.1738V11.796C41.2648 10.7909 41.0067 10.073 40.4905 9.65743C39.9743 9.24181 39.1545 9.02267 38.0234 9.02267C37.196 9.02267 36.3382 9.14358 35.4652 9.38539C34.5847 9.6272 33.6813 10.0201 32.7552 10.5642L31.6621 7.88161C32.2466 7.49622 32.9146 7.17884 33.6586 6.91436C34.4025 6.64987 35.1919 6.44584 36.0042 6.29471C36.824 6.14358 37.6135 6.06801 38.3802 6.06801C39.8149 6.06801 41.0294 6.28715 42.0163 6.733C43.0031 7.17884 43.7546 7.85138 44.2556 8.75063C44.7642 9.65743 45.0147 10.8287 45.0147 12.2796V21.272H41.5304V18.1662H41.6215C41.4166 18.8312 41.0902 19.4207 40.6347 19.927C40.1792 20.4408 39.6251 20.8413 38.9647 21.136C38.3043 21.4307 37.5527 21.5743 36.7101 21.5743L36.7177 21.5668Z" fill="#18322F"/>
<path d="M49.2657 21.2645V6.36272H52.9929V9.37784H52.841C53.3041 8.31234 54.0101 7.49622 54.9589 6.92192C55.9078 6.34761 56.9781 6.06046 58.1699 6.06046C59.3617 6.06046 60.3941 6.28716 61.1988 6.74056C62.0034 7.19396 62.6107 7.88161 63.0206 8.80353C63.4229 9.72544 63.6279 10.8967 63.6279 12.3023V21.2645H59.6881V12.4836C59.6881 11.7431 59.5895 11.1234 59.3997 10.6474C59.2099 10.1713 58.9063 9.80101 58.5039 9.5592C58.1016 9.31738 57.5778 9.19648 56.925 9.19648C56.1963 9.19648 55.551 9.35517 54.9893 9.6801C54.42 10.005 53.9873 10.4584 53.6685 11.0403C53.3572 11.6222 53.1978 12.2872 53.1978 13.0277V21.2645H49.2581H49.2657Z" fill="#18322F"/>
<path d="M74.8626 21.5668C72.8206 21.5668 71.3024 21.0605 70.3004 20.0403C69.2984 19.0277 68.7974 17.5542 68.7974 15.6196V9.40806H65.9204V6.36272H68.9188V2.04786H72.7371V6.36272H77.5574V9.40806H72.7371V15.4383C72.7371 16.4055 72.9572 17.1234 73.4051 17.5919C73.8454 18.068 74.5438 18.3023 75.4926 18.3023C75.8342 18.3023 76.1758 18.2645 76.5098 18.1965C76.8438 18.1285 77.1778 18.0378 77.527 17.9395L78.1039 20.864C77.6788 21.0831 77.1778 21.2569 76.6009 21.3778C76.024 21.4987 75.4471 21.5592 74.8626 21.5592V21.5668Z" fill="#18322F"/>
<path d="M17.5277 3.6801C17.5277 3.6801 16.0854 1.17884 12.6087 0.808567C9.13958 0.43829 6.51309 4.42821 6.51309 4.42821L6.77878 1.23174H2.32285L0 25.602H4.6457C4.6457 25.602 5.45035 18.5214 5.76917 13.194C6.08799 7.85894 7.47715 4.74559 10.3617 4.74559C13.2463 4.74559 13.0869 6.39295 13.0869 6.39295C13.0869 6.39295 11.5383 5.49371 8.60062 10.4887C5.65531 15.4912 8.44121 19.7985 11.9634 20.2217C15.4933 20.6448 17.5201 17.3501 17.5201 17.3501C21.475 11.0176 17.5201 3.67255 17.5201 3.67255L17.5277 3.6801ZM13.7246 14.9622C12.2823 16.398 11.1057 16.4584 10.9462 15.6574C10.7792 14.8564 9.92905 12.6801 14.5823 9.37784C14.5823 9.37784 15.1668 13.5265 13.7246 14.9622Z" fill="#18322F"/>
<path d="M11.0373 7.2393C11.0373 7.2393 16.4345 2.46348 21.8773 1.466V5.66751C21.8773 5.66751 16.8065 7.05793 14.5823 9.37028" fill="#18322F"/>
</g>
<defs>
<clipPath id="clip0_1_5">
<rect width="147" height="27" fill="white"/>
</clipPath>
</defs>
</svg>
