<?xml version="1.0" encoding="UTF-8"?>
<svg id="Layer_1" data-name="Layer 1" xmlns="http://www.w3.org/2000/svg" viewBox="0 0 147.02 27">
  <defs>
    <style>
      .cls-1 {
        fill: #fff;
      }
    </style>
  </defs>
  <path class="cls-1" d="M89.52,27c-1.29,0-2.54-.16-3.74-.47-1.2-.31-2.25-.78-3.14-1.41l1.09-2.83c.55.34,1.13.63,1.76.89.62.25,1.26.44,1.91.56.65.12,1.28.18,1.91.18,1.43,0,2.52-.32,3.26-.98.74-.66,1.11-1.63,1.11-2.94v-2.44h.09c-.34.97-.98,1.75-1.91,2.35-.93.6-2,.91-3.21.91-1.37,0-2.57-.31-3.59-.92-1.02-.61-1.81-1.47-2.38-2.58-.56-1.1-.85-2.4-.85-3.89s.28-2.76.85-3.86c.57-1.1,1.36-1.96,2.38-2.58,1.02-.61,2.22-.92,3.59-.92,1.23,0,2.32.3,3.24.91.93.6,1.56,1.41,1.88,2.41h-.09v-3.02h3.76v13.24c0,1.59-.31,2.93-.93,4.03-.61,1.1-1.51,1.93-2.68,2.5-1.17.57-2.6.86-4.3.86h0ZM89.67,17.83c1.19,0,2.13-.39,2.83-1.19.7-.79,1.05-1.87,1.05-3.21s-.35-2.41-1.05-3.18c-.7-.77-1.64-1.16-2.83-1.16s-2.16.39-2.86,1.16c-.7.78-1.05,1.84-1.05,3.18s.35,2.42,1.05,3.21c.7.79,1.65,1.19,2.86,1.19Z"/>
  <path class="cls-1" d="M107.28,21.57c-1.23,0-2.27-.23-3.11-.7-.83-.46-1.46-1.15-1.88-2.06-.42-.91-.62-2.06-.62-3.45V6.36h3.94v8.96c0,.66.1,1.23.29,1.71.19.48.49.82.91,1.06.42.23.93.35,1.56.35.68,0,1.3-.16,1.84-.48.53-.32.96-.77,1.26-1.35s.46-1.22.46-1.94V6.37h3.94v14.9h-3.73v-3.11h.24c-.46,1.09-1.13,1.93-2,2.52-.87.59-1.9.89-3.09.89h-.02Z"/>
  <path class="cls-1" d="M120.16,21.26V6.36h3.67v3.62h-.12c.3-1.16.87-2.08,1.72-2.74.83-.66,1.92-1.04,3.26-1.12l1.43-.12.27,3.44-2.45.21c-1.23.12-2.17.51-2.82,1.18-.65.66-.97,1.55-.97,2.65v7.78h-3.98Z"/>
  <path class="cls-1" d="M138.43,21.57c-1.23,0-2.27-.23-3.1-.7-.83-.46-1.46-1.15-1.88-2.06-.42-.91-.62-2.06-.62-3.45V6.36h3.94v8.96c0,.66.1,1.23.29,1.71.19.48.49.82.91,1.06.42.23.93.35,1.56.35.68,0,1.3-.16,1.84-.48.53-.32.96-.77,1.26-1.35.3-.57.45-1.22.45-1.94V6.37h3.94v14.9h-3.73v-3.11h.24c-.46,1.09-1.13,1.93-2,2.52-.87.59-1.9.89-3.09.89h-.02Z"/>
  <path class="cls-1" d="M26.72,21.57c-1.74,0-3.04-.47-3.91-1.41-.87-.94-1.31-2.3-1.31-4.09V0h3.94v15.84c0,.57.08,1.04.24,1.42.16.39.4.67.73.88.33.2.71.3,1.18.3.27,0,.52-.02.76-.05.24-.03.49-.08.73-.14l.06,2.98c-.4.1-.8.18-1.18.24-.39.06-.8.09-1.24.09h0Z"/>
  <path class="cls-1" d="M36.72,21.57c-1.09,0-2.06-.2-2.92-.62s-1.53-.97-2.03-1.69c-.49-.71-.74-1.51-.74-2.4,0-1.1.3-1.99.91-2.64.61-.65,1.56-1.13,2.88-1.44,1.31-.3,3.03-.45,5.15-.45h1.79v2.29h-1.67c-.95,0-1.75.04-2.41.11-.65.07-1.19.18-1.61.33-.42.15-.71.36-.91.62-.19.26-.29.58-.29.97,0,.68.24,1.22.73,1.6.49.39,1.15.57,2,.57.68,0,1.31-.16,1.84-.48.55-.32.99-.76,1.32-1.31.33-.55.5-1.17.5-1.85v-3.38c0-1.01-.26-1.72-.77-2.14-.52-.42-1.34-.63-2.47-.63-.83,0-1.69.12-2.56.36-.88.24-1.78.63-2.71,1.18l-1.09-2.68c.58-.39,1.25-.7,2-.97.74-.26,1.53-.47,2.35-.62.82-.15,1.61-.23,2.38-.23,1.43,0,2.65.22,3.64.66.99.45,1.74,1.12,2.24,2.02.51.91.76,2.08.76,3.53v8.99h-3.48v-3.11h.09c-.2.66-.53,1.25-.99,1.76-.46.51-1.01.91-1.67,1.21s-1.41.44-2.25.44h0Z"/>
  <path class="cls-1" d="M49.27,21.26V6.36h3.73v3.02h-.15c.46-1.07,1.17-1.88,2.12-2.46.95-.57,2.02-.86,3.21-.86s2.22.23,3.03.68c.8.45,1.41,1.14,1.82,2.06.4.92.61,2.09.61,3.5v8.96h-3.94v-8.78c0-.74-.1-1.36-.29-1.84-.19-.48-.49-.85-.9-1.09-.4-.24-.93-.36-1.58-.36-.73,0-1.37.16-1.94.48-.57.32-1,.78-1.32,1.36-.31.58-.47,1.25-.47,1.99v8.24h-3.94,0Z"/>
  <path class="cls-1" d="M74.86,21.57c-2.04,0-3.56-.51-4.56-1.53-1-1.01-1.5-2.49-1.5-4.42v-6.21h-2.88v-3.05h3V2.05h3.82v4.31h4.82v3.05h-4.82v6.03c0,.97.22,1.69.67,2.15.44.48,1.14.71,2.09.71.34,0,.68-.04,1.02-.11.33-.07.67-.16,1.02-.26l.58,2.92c-.43.22-.93.39-1.5.51-.58.12-1.15.18-1.74.18h0Z"/>
  <path class="cls-1" d="M17.53,3.68s-1.44-2.5-4.92-2.87c-3.47-.37-6.1,3.62-6.1,3.62l.27-3.2H2.32L0,25.6h4.65s.8-7.08,1.12-12.41c.32-5.34,1.71-8.45,4.59-8.45s2.73,1.65,2.73,1.65c0,0-1.55-.9-4.49,4.1-2.95,5-.16,9.31,3.36,9.73,3.53.42,5.56-2.87,5.56-2.87,3.95-6.33,0-13.68,0-13.68h0ZM13.72,14.96c-1.44,1.44-2.62,1.5-2.78.7-.17-.8-1.02-2.98,3.64-6.28,0,0,.58,4.15-.86,5.58Z"/>
  <path class="cls-1" d="M11.04,7.24s5.4-4.78,10.84-5.77v4.2s-5.07,1.39-7.3,3.7"/>
</svg>